<svg id="Layer_1" enable-background="new 0 0 512.03 512.03" height="512" viewBox="0 0 512.03 512.03" width="512" xmlns="http://www.w3.org/2000/svg"><g><path d="m432.015 128.03h-48v-16c0-68.105-60.657-120.652-128-110.85-54.413 7.804-96 54.73-96 110.85v79.551c0 8.618-6.626 16.031-15.235 16.431-9.188.428-16.765-6.889-16.765-15.982v-59c0-2.761-2.239-5-5-5h-43c-8.837 0-16 7.163-16 16v320c0 26.51 21.49 48 48 48h288c26.51 0 48-21.49 48-48v-320c0-8.837-7.164-16-16-16zm-264 152c0-17.65 14.36-32 32-32s32 14.35 32 32-14.36 32-32 32-32-14.35-32-32zm31.99 144c-13.144 0-20.841-15.248-12.62-25.82l112-144c5.43-6.98 15.48-8.23 22.45-2.81 6.98 5.43 8.23 15.48 2.81 22.45l-112 144c-3.15 4.059-7.87 6.18-12.64 6.18zm112.01 0c-17.64 0-32-14.35-32-32s14.36-32 32-32 32 14.35 32 32-14.36 32-32 32zm23.234-216.018c-8.609-.401-15.235-7.813-15.235-16.431v-58.551c0-2.761-2.239-5-5-5h-123v-16c0-44.06 35.843-80 80-80 44.1 0 80 35.882 80 80v80c.001 9.093-7.576 16.409-16.765 15.982z"/></g></svg>